<svg xmlns="http://www.w3.org/2000/svg" version="1.1" xmlns:xlink="http://www.w3.org/1999/xlink" xmlns:svgjs="http://svgjs.dev/svgjs" viewBox="0 0 8.131733845710635 8.131733845710635"><g transform="matrix(1,0,0,1,2.6969853573867475,2.6969853573867475)"><rect width="8.131733845710635" height="8.131733845710635" x="-2.6969853573867475" y="-2.6969853573867475" fill="#ffffff"></rect><g><path d=" M -1.3106013148870723 0.007962151617581847 Q -1.2240154624791086 -0.037139291405744235 -1.1215987947545774 0.005660547054265885 Q -1.0201047997122492 0.04807480138400566 -0.9913565668448399 0.14137426069112702 Q -0.9626083339774305 0.2346737199982485 -1.0135054391731182 0.35646651404904234 L -1.0906222652271906 0.5410010504896392 L -0.8793302210027072 0.629299816321552 L -0.8989950116464956 0.6763561231139041 L -1.5448658891885845 0.406447231924651 L -1.4480842724907237 0.17485638869170206 Q -1.397187167295036 0.05306359464090815 -1.3106013148870723 0.007962151617581847 Z M -1.0352244577061698 0.16205899301664772 Q -1.0576859554481648 0.08872768238342388 -1.1416491695286362 0.05363952652882098 Q -1.2256123836091077 0.01855137067421808 -1.2940341450641069 0.05390264447581128 Q -1.362455906519106 0.08925391827740436 -1.4056413291093866 0.19259325868413857 L -1.4827581551634588 0.37712779512473543 L -1.1330652086085278 0.5232641804972025 L -1.0559483825544556 0.33872964405660566 Q -1.012762959964175 0.23539030364987146 -1.0352244577061698 0.16205899301664772 Z M -0.5318645750151758 -0.10987405859474503 Q -0.6221235182361696 -0.07979793569585039 -0.7139978263247735 -0.09919797469684943 Q -0.8058721344133775 -0.1185980136978485 -0.8798216890095323 -0.18591415867830852 Q -0.9537712436056871 -0.25323030365876853 -0.9816952139628541 -0.34288241952611476 Q -1.009619184320021 -0.4325345353934609 -0.9881333268734512 -0.5252146731241834 Q -0.9666474694268814 -0.6178948108549057 -0.8973118400970076 -0.6940628520889452 Q -0.8279762107671338 -0.7702308933229848 -0.7380870153191208 -0.8006435969467818 Q -0.6481978198711077 -0.8310563005705787 -0.5563235117825038 -0.8116562615695795 Q -0.4644492036938998 -0.7922562225685805 -0.3897601535517834 -0.7242669161383158 Q -0.31507110340966704 -0.6562776097080513 -0.28714713305250006 -0.5666254938407052 Q -0.25922316269533313 -0.4769733779733589 -0.28107876791488373 -0.38462982096753884 Q -0.30293437313443433 -0.29228626396171864 -0.37227000246430814 -0.2161182227276791 Q -0.44160563179418194 -0.13995018149363964 -0.5318645750151758 -0.10987405859474503 Z M -0.32957344444403136 -0.3922630606685656 Q -0.31135880334636673 -0.47169370242401953 -0.3358936198946674 -0.5494709020196673 Q -0.36042843644296785 -0.6272481016153152 -0.4247645489416226 -0.6858131477483154 Q -0.4891006614402773 -0.7443781938813157 -0.5688347168725552 -0.7615167587081164 Q -0.6485687723048329 -0.7786553235349172 -0.7259430570794214 -0.7530775977638313 Q -0.80331734185401 -0.7274998719927454 -0.8625555494368149 -0.662424263948129 Q -0.9217937570196196 -0.5973486559035128 -0.9403449788421866 -0.517548266375078 Q -0.9588962006647536 -0.4377478768466434 -0.9343613841164531 -0.3599706772509955 Q -0.9098265675681524 -0.28219347765534775 -0.8454904550694977 -0.22362843152234746 Q -0.7811543425708429 -0.16506338538934728 -0.7014202871385652 -0.14792482056254647 Q -0.6216862317062875 -0.13078625573574565 -0.5439753662067965 -0.15673372927981236 Q -0.46626450070730574 -0.18268120282387906 -0.4070262931245009 -0.24775681086849533 Q -0.3477880855416961 -0.31283241891311164 -0.32957344444403136 -0.3922630606685656 Z M 0.4800283914366632 -0.8314280433291077 L 0.22245697463246905 -0.9591071929404679 Q 0.19218008681066673 -0.9372597660021302 0.16483866535654224 -0.9226499517367831 L -0.011557602089422345 -0.8283930855087372 L 0.09636650974169023 -0.6264193592831078 L 0.051385461542969274 -0.6023838583949561 L -0.2785135702551914 -1.2197707944558323 L -0.05713625461050592 -1.3380631615720298 Q 0.0592852819038307 -1.40027269328254 0.1548891528923318 -1.3804951845411932 Q 0.25049302388083283 -1.3607176757998465 0.3028055846373983 -1.262817747367336 Q 0.34192218412203734 -1.189613296377261 0.3310655419991928 -1.119751766750316 Q 0.32020889987634843 -1.0498902371233716 0.26137191385141767 -0.9923732042070074 L 0.5311833089959929 -0.858762534535241 L 0.4800283914366632 -0.8314280433291077 Z M 0.14363087045523187 -0.9623391119121252 Q 0.24241278022497204 -1.0151229569998308 0.2711211047300902 -1.0865868087299808 Q 0.2998294292352084 -1.1580506604601304 0.25694255510144753 -1.2383109621480441 Q 0.21405568096768662 -1.3185712638359584 0.1386902076796857 -1.3344235644915607 Q 0.06332473439168479 -1.3502758651471636 -0.03545717537805537 -1.2974920200594577 L -0.21185344282401994 -1.2032351538314119 L -0.03276539699073269 -0.8680822456840793 L 0.14363087045523187 -0.9623391119121252 Z M 0.7232842712051982 -1.574797217616267 L 0.4766867329367519 -1.5228967925703953 L 0.4672128458252039 -1.5679106289209848 L 1.0103145670116631 -1.6822151364624878 L 1.0197884541232112 -1.6372013001118983 L 0.7731909158547647 -1.5853008750660267 L 0.9078848760928602 -0.9453215495598206 L 0.8579782314432937 -0.9348178921100609 L 0.7232842712051982 -1.574797217616267 Z M 1.4034700403364702 -1.6476116283967355 L 1.3863709495192444 -1.3491009567395498 L 1.758760516502958 -1.3277699839140475 L 1.7561298871464617 -1.2818452651975574 L 1.3837403201627483 -1.3031762380230596 L 1.3660693533984583 -0.9946819318622888 L 1.3151528174301756 -0.9975984991923172 L 1.355184133724684 -1.6964529144432543 L 1.8224182284924533 -1.66968912012064 L 1.819787599135957 -1.62376440140415 L 1.4034700403364702 -1.6476116283967355 Z M 2.087093159266427 -0.9297541587811602 Q 2.0272723482638666 -1.003731997158582 2.0132185794337647 -1.0965745605746688 Q 1.9991648106036628 -1.1894171239907554 2.0362701040571305 -1.282278295627409 Q 2.0733753975105977 -1.3751394672640629 2.147539741735317 -1.4327320018993552 Q 2.2217040859600363 -1.4903245365346476 2.316032819874321 -1.5027075877793137 Q 2.410361553788606 -1.5150906390239798 2.5060085605743594 -1.4768721867669083 Q 2.6016555673601127 -1.4386537345098367 2.6616619048299404 -1.365140201990598 Q 2.721668242299768 -1.2916266694713594 2.7357220111298695 -1.1987841060552729 Q 2.749775779959972 -1.105941542639186 2.7122994335719697 -1.012151759286166 Q 2.6748230871839676 -0.9183619759331456 2.600658742959248 -0.8607694412978532 Q 2.526494398734529 -0.8031769066625607 2.4323511912875113 -0.791258161276078 Q 2.3382079838404937 -0.7793394158895952 2.2425609770547403 -0.8175578681466668 Q 2.146913970268987 -0.8557763204037382 2.087093159266427 -0.9297541587811602 Z M 2.4224918452615367 -0.8393496708795423 Q 2.5032653945049477 -0.8501493811822418 2.5674977067606704 -0.900403336870161 Q 2.631730019016393 -0.9506572925580803 2.6640116243209095 -1.0314465118819691 Q 2.696293229625426 -1.1122357312058577 2.6843793811390926 -1.1929160275256203 Q 2.672465532652759 -1.273596323845383 2.6213762181721223 -1.3370855508520063 Q 2.570286903691485 -1.4005747778586297 2.48856907265123 -1.433227436097681 Q 2.4068512416109744 -1.4658800943367323 2.3256133865093798 -1.4552659105013002 Q 2.2443755314077856 -1.4446517266658678 2.180143219152063 -1.3943977709779487 Q 2.1159109068963406 -1.3441438152900294 2.0836293015918237 -1.2633545959661405 Q 2.051347696287307 -1.182565376642252 2.0632615447736407 -1.1018850803224893 Q 2.075175393259974 -1.0212047840027267 2.126729013598794 -0.9575300305288361 Q 2.1782826339376147 -0.8938552770549454 2.26000046497787 -0.861202618815894 Q 2.3417182960181253 -0.8285499605768426 2.4224918452615367 -0.8393496708795423 Z M 3.197786996919625 -1.0897604149676963 L 3.236950267448566 -1.0570918024860347 L 2.818023354448435 -0.5548804509972609 L 3.127489982353597 -0.29673435628922906 L 3.0980241750171964 -0.2614106220866548 L 2.7493942765830934 -0.5522253292763482 L 3.197786996919625 -1.0897604149676963 Z M 3.7405081582963784 -0.564196030853801 L 3.772399422966349 -0.5243971962257639 L 3.2261409084638775 -0.08667395565753341 L 3.1942496437939067 -0.12647279028557062 L 3.7405081582963784 -0.564196030853801 Z M 3.483216814513846 0.21599798899287492 Q 3.4916510808508385 0.12123453004715748 3.5460972295858286 0.04473049820616676 Q 3.600543378320819 -0.03177353363482396 3.6917745395103196 -0.07272320064220394 Q 3.7830057006998206 -0.11367286764958393 3.876354033091822 -0.10350729636054878 Q 3.969702365483823 -0.09334172507151364 4.046113079053066 -0.036661456442659585 Q 4.12252379262231 0.020018812186194446 4.164701949639911 0.11398690821138036 Q 4.206880106657513 0.20795500423656632 4.198901996126468 0.3025137148472468 Q 4.1909238855954225 0.39707242545792737 4.136477736860432 0.4735764572989181 Q 4.082031588125442 0.5500804891399089 3.989888115324046 0.5914396528173627 Q 3.8977446425226505 0.6327988164948164 3.804396310130649 0.6226332452057812 Q 3.711047977738648 0.6124676739167461 3.635093419975352 0.555582656952855 Q 3.5591388622120563 0.4986976399889642 3.516960705194455 0.40472954396377825 Q 3.4747825481768535 0.31076144793859234 3.483216814513846 0.21599798899287492 Z M 3.661441785971055 0.5141608799586641 Q 3.7270085140220948 0.5625551376002578 3.808115846133719 0.5710903984477502 Q 3.889223178245343 0.5796256592952427 3.9685942884802086 0.543999448998822 Q 4.047965398715075 0.5083732387024016 4.095494003880646 0.44209894737450334 Q 4.143022609046219 0.3758246560466051 4.1504408099467796 0.2946706647991074 Q 4.15785901084734 0.21351667355160975 4.121823303880846 0.13323325170484895 Q 4.085787596914352 0.05294982985808816 4.0200161205282745 0.004099416410547035 Q 3.9542446441421975 -0.04475099703699412 3.873137312030573 -0.05328625788448657 Q 3.7920299799189494 -0.06182151873197908 3.7126588696840837 -0.02619530843555848 Q 3.633287759449218 0.00943090186086211 3.5857591542836453 0.07570519318876037 Q 3.538230549118073 0.14197948451665862 3.5310170965525494 0.22358963157010375 Q 3.523803643987026 0.3051997786235489 3.55983935095352 0.3854832004703097 Q 3.5958750579200145 0.4657666223170705 3.661441785971055 0.5141608799586641 Z" fill="#404040" fill-rule="nonzero"></path></g><g><path d=" M -0.3490178643122763 3.0352319623355855 L -0.9196724937964164 3.440637060784432 L -0.9607921537819422 3.382756376936755 L -0.5042684501946302 3.0584322981776775 L -1.0475037824238627 3.1070262671223463 L -1.0677740373463052 3.0784935356481395 L -0.8455169451675268 2.583265522530713 L -1.2995949860570497 2.905852150867866 L -1.3407146460425756 2.847971467020189 L -0.7700600165584355 2.4425663685713426 L -0.7347318579793217 2.4922948434263894 L -0.9817698619419207 3.040700919795146 L -0.3843460228913902 2.9855034874805386 L -0.3490178643122763 3.0352319623355855 Z M -0.0760836046626423 3.8660541979226277 L -0.39970804535714105 3.6484140789528645 L -0.573767417833253 3.7567115159180213 L -0.6376624997139618 3.7137415437111705 L 0.018511613878535838 3.311453670850081 L 0.07908747072648048 3.352191436708524 L -0.046010637623762674 4.111632325314866 L -0.11073552576266243 4.068104301520914 L -0.0760836046626423 3.8660541979226277 Z M -0.06500527840768244 3.8011984295794137 L 0.0054146669665617875 3.3954386098664604 L -0.343820181159866 3.6136930963131557 L -0.06500527840768244 3.8011984295794137 Z M 1.0409556935337896 3.729766605376452 L 0.8602923873715793 4.406051138547617 L 0.8013590209095207 4.390307621867767 L 0.5132000465853943 3.725410332418887 L 0.36660467815662945 4.274166925049203 L 0.2951117417928207 4.255068232683484 L 0.4757750479550309 3.5787836995123197 L 0.5347084144170895 3.5945272161921693 L 0.823833509502889 4.259682596078424 L 0.9704288779316539 3.7109260034481073 L 1.0409556935337896 3.729766605376452 Z M 1.7630231618705245 4.227276211002494 L 1.3739198489687967 4.253707478261182 L 1.302786435362718 4.445970416626189 L 1.2259634735846847 4.451188897597776 L 1.497786994219228 3.7311111423311365 L 1.570619152788013 3.7261637512801515 L 1.937324145633228 4.402867119250484 L 1.8595034830528825 4.4081533727022215 L 1.7630231618705245 4.227276211002494 Z M 1.7320188913990684 4.16924401982783 L 1.5389227040740514 3.805494294823753 L 1.3967914218221953 4.1920155731583915 L 1.7320188913990684 4.16924401982783 Z M 2.6009135248946427 3.798872672350267 L 2.6666302927310577 3.771996913288713 L 2.767698288075212 4.019128983884809 Q 2.7386213305493317 4.077477338969063 2.685313147639133 4.124127501185424 Q 2.632004964728935 4.170777663401786 2.5635114320543617 4.198789017916646 Q 2.4663246627188182 4.238534858782324 2.3711627836330385 4.227754470623105 Q 2.2760009045472587 4.216974082463886 2.2007223239886025 4.159708164946799 Q 2.1254437434299462 4.10244224742971 2.087212029835341 4.008957831211712 Q 2.0489803162407356 3.9154734149937127 2.062558210503148 3.821868442970861 Q 2.0761361047655598 3.72826347094801 2.1364730566166497 3.653889737403705 Q 2.1968100084677396 3.5795160038594003 2.294922366082669 3.539391631175953 Q 2.3689694284335596 3.5091090857544835 2.4406364045055238 3.5073499550883493 Q 2.5123033805774875 3.5055908244222147 2.573807032317668 3.534457774774176 L 2.5490209669010193 3.5953728875226694 Q 2.4411575306549644 3.5508927894877815 2.32268223089354 3.5993448621621327 Q 2.244007227145719 3.631520066672444 2.194799373174083 3.692159056666557 Q 2.145591519202447 3.7527980466606703 2.1346659421879846 3.829112408132814 Q 2.123740365173522 3.905426769604958 2.1547799742305282 3.9813250085146206 Q 2.1858195832875347 4.057223247424283 2.246900626156306 4.103549332970801 Q 2.3079816690250774 4.149875418517319 2.385305881098532 4.159307609525743 Q 2.462630093171987 4.168739800534167 2.5413050969198077 4.136564596023856 Q 2.6412686310935096 4.095683159704872 2.6902470338879776 4.0173115062853935 L 2.6009135248946427 3.798872672350267 Z M 3.513630733200725 3.4865751535695124 L 3.554886942902986 3.5355029080755496 L 3.1764613416453544 3.8545939049914764 L 2.725221548026872 3.319446590081694 L 3.0921797068221513 3.0100250173147347 L 3.133435916524413 3.0589527718207723 L 2.823050473876739 3.320671852119492 L 2.9835629147495992 3.511031396994543 L 3.260310526174372 3.2776759608661274 L 3.3009221076000355 3.325839219208008 L 3.0241744961752626 3.559194655336423 L 3.1917778480906986 3.7579636580171996 L 3.513630733200725 3.4865751535695124 Z M 4.076304963060729 2.8250752263000427 L 3.800556017975893 2.8387689943935954 Q 3.7885475921971987 2.8631369592310123 3.772934299073116 2.88757514815371 L 3.671717088475614 3.046002028066372 L 3.8587956381597146 3.1655244788783157 L 3.8189548212224 3.2278839954396825 L 3.2290675023986593 2.8510114027894096 L 3.370125529933476 2.630225006315381 Q 3.4422697119550993 2.517303719569122 3.5371198625924425 2.487715733424855 Q 3.6319700132297856 2.4581277472805882 3.7263519842415844 2.518427362104632 Q 3.795453070160937 2.562575294386521 3.8207222429017293 2.627966187552129 Q 3.8459914156425223 2.693357080717737 3.8256028346946973 2.7717044212401443 L 4.119914505924546 2.7568168365504384 L 4.076304963060729 2.8250752263000427 Z M 3.7656075552078376 2.6965874029334147 Q 3.7564549493933703 2.6254732003659598 3.6865111673042694 2.580786878665999 Q 3.6148819928756724 2.5350237781298945 3.546927899158179 2.5568753489437777 Q 3.4789738054406865 2.5787269197576608 3.4229813059612173 2.6663673214114736 L 3.322840874199859 2.8231088089846392 L 3.6186272297814774 3.0120834947278476 L 3.718767661542836 2.855342007154682 Q 3.774760161022305 2.767701605500869 3.7656075552078376 2.6965874029334147 Z" fill="#4e888f" fill-rule="nonzero"></path></g><g clip-path="url(&quot;#SvgjsClipPath1021&quot;)"><g clip-path="url(&quot;#SvgjsClipPath1008&quot;)"><path d=" M 2.162598208029117 0.5751649229080226 L 0.11503819936852057 0.5751649229080226 L 0.11503819936852057 2.622724931568619 L 2.162598208029117 2.622724931568619 Z M 0 0.4601267235395019 L 0 2.7377631309371395 L 2.2776364073976376 2.7377631309371395 L 2.2776364073976376 0.4601267235395019 Z" fill="#404040" transform="matrix(1,0,0,1,0,0)" fill-rule="evenodd"></path></g><g clip-path="url(&quot;#SvgjsClipPath1008&quot;)"><path d=" M 2.4386690273659024 0.2990941035712374 L 0.2990941035712374 0.2990941035712374 L 0.2990941035712374 2.4386690273659024 L 2.4386690273659024 2.4386690273659024 Z M 0.23007639873704114 0.23007639873704114 L 0.23007639873704114 2.5076867322000984 L 2.5076867322000984 2.5076867322000984 L 2.5076867322000984 0.23007639873704114 Z" fill="#404040" transform="matrix(1,0,0,1,0,0)" fill-rule="evenodd"></path></g><g clip-path="url(&quot;#SvgjsClipPath1008&quot;)"><path d=" M 2.6917426364028154 0.046020494534324295 L 0.5061472180738262 0.046020494534324295 L 0.5061472180738262 2.231615912863313 L 2.691742636402815 2.231615912863313 Z M 0.4601267235395019 0 L 0.4601267235395019 2.2776364073976376 L 2.7377631309371395 2.2776364073976376 L 2.7377631309371395 0 Z" fill="#404040" transform="matrix(1,0,0,1,0,0)" fill-rule="evenodd"></path></g><g clip-path="url(&quot;#SvgjsClipPath1008&quot;)"><path d=" M 0.690203122276543 1.5644360748212225 L 1.1503298458160451 1.5644360748212225 L 1.1503298458160451 2.0245627983607246 L 0.690203122276543 2.0245627983607246 Z" fill="#4e888f" transform="matrix(1,0,0,1,0,0)" fill-rule="nonzero"></path></g></g><g><path d=" M -2.0443408702441945 1.3688815654685698 A 3.4132224357127643 3.4132224357127643 0 0 1 4.7821040011813345 1.3688815654685698 A 3.4132224357127643 3.4132224357127643 0 0 1 -2.044340870244194 1.3688815654685698 Z M -1.9943408702441947 1.3688815654685698 A 3.3632224357127645 3.3632224357127645 0 0 0 4.732104001181334 1.3688815654685698 A 3.3632224357127645 3.3632224357127645 0 0 0 -1.9943408702441952 1.3688815654685698 Z" fill="#404040" fill-rule="nonzero"></path></g><g transform="matrix(-0.12059935271054958,-0.9927012622767216,0.9927012622767216,-0.12059935271054958,-3.0872788177166743,0.47471382612114765)"><g clip-path="url(&quot;#SvgjsClipPath1022&quot;)"><path d=" M -1.3333729058165498 1.8001345051760094 C -1.2246475709889635 1.8001345051760094 -1.1345875766786189 1.710267185348423 -1.1345875766786189 1.6013491760380782 C -1.1345875766786189 1.4926242791070436 -1.2246475709889635 1.4025645037449748 -1.3335655802993085 1.4025645037449748 C -1.4422911340751705 1.4025645037449748 -1.532158234954481 1.4926242791070436 -1.532158234954481 1.6013491760380782 C -1.532158234954481 1.710267185348423 -1.4420986785406877 1.8001345051760094 -1.3333729058165498 1.8001345051760094 Z M -1.3333729058165498 1.7610719432794575 C -1.4218930369027567 1.7610719432794575 -1.4929014659372395 1.6898699639691126 -1.4929014659372395 1.6013491760380782 C -1.4929014659372395 1.5128305775898023 -1.4220854924372395 1.4418212727622162 -1.3335655802993085 1.4418212727622162 C -1.245044792368274 1.4418212727622162 -1.1738450025406877 1.5128305775898023 -1.1736523280579292 1.6013491760380782 C -1.1736523280579292 1.6898699639691126 -1.2448521178855154 1.7610719432794575 -1.3333729058165498 1.7610719432794575 Z M -1.3331802313337913 1.6767834255208367 C -1.291615090644136 1.6767834255208367 -1.2577459818510326 1.642916506210492 -1.2577459818510326 1.6009660165553194 C -1.2577459818510326 1.559398686382906 -1.291615090644136 1.5255295775898023 -1.3331802313337913 1.5255295775898023 C -1.3751307209889636 1.5255295775898023 -1.408999829782067 1.559398686382906 -1.408999829782067 1.6009660165553194 C -1.408999829782067 1.642916506210492 -1.3751307209889636 1.6767834255208367 -1.3331802313337913 1.6767834255208367 Z" fill="#404040" transform="matrix(1,0,0,1,0,0)" fill-rule="nonzero"></path></g></g><g transform="matrix(0.12059935271054958,-0.9927012622767216,-0.9927012622767216,-0.12059935271054958,5.173261668461466,5.839776675396454)"><g clip-path="url(&quot;#SvgjsClipPath1023&quot;)"><path d=" M 4.071136036753689 1.8001345051760094 C 4.179861371581276 1.8001345051760094 4.26992136589162 1.710267185348423 4.26992136589162 1.6013491760380782 C 4.26992136589162 1.4926242791070436 4.179861371581276 1.4025645037449748 4.07094336227093 1.4025645037449748 C 3.9622178084950685 1.4025645037449748 3.8723507076157584 1.4926242791070436 3.8723507076157584 1.6013491760380782 C 3.8723507076157584 1.710267185348423 3.9624102640295513 1.8001345051760094 4.071136036753689 1.8001345051760094 Z M 4.071136036753689 1.7610719432794575 C 3.9826159056674824 1.7610719432794575 3.911607476633 1.6898699639691126 3.911607476633 1.6013491760380782 C 3.911607476633 1.5128305775898023 3.9824234501329996 1.4418212727622162 4.07094336227093 1.4418212727622162 C 4.159464150201965 1.4418212727622162 4.230663940029551 1.5128305775898023 4.23085661451231 1.6013491760380782 C 4.23085661451231 1.6898699639691126 4.159656824684724 1.7610719432794575 4.071136036753689 1.7610719432794575 Z M 4.071328711236448 1.6767834255208367 C 4.112893851926103 1.6767834255208367 4.146762960719206 1.642916506210492 4.146762960719206 1.6009660165553194 C 4.146762960719206 1.559398686382906 4.112893851926103 1.5255295775898023 4.071328711236448 1.5255295775898023 C 4.0293782215812755 1.5255295775898023 3.995509112788172 1.559398686382906 3.995509112788172 1.6009660165553194 C 3.995509112788172 1.642916506210492 4.0293782215812755 1.6767834255208367 4.071328711236448 1.6767834255208367 Z" fill="#404040" transform="matrix(1,0,0,1,0,0)" fill-rule="nonzero"></path></g></g></g><defs><clipPath id="SvgjsClipPath1021"><path d=" M 0 0 h 2.7377631309371395 v 2.7377631309371395 h -2.7377631309371395 Z"></path></clipPath><clipPath id="SvgjsClipPath1008"><path d=" M 0 0 L 2.7377631309371395 0 L 2.7377631309371395 2.7377631309371395 L 0 2.7377631309371395 Z"></path></clipPath><clipPath id="SvgjsClipPath1022"><path d=" M -1.6399004920234463 1.2873401272449747 h 0.6130551724137931 v 0.63495 h -0.6130551724137931 Z"></path></clipPath><clipPath id="SvgjsClipPath1023"><path d=" M 3.7646084505467927 1.2873401272449747 h 0.6130551724137931 v 0.63495 h -0.6130551724137931 Z"></path></clipPath></defs></svg>